<?xml version="1.0" encoding="UTF-8" standalone="no"?>
<svg
   viewBox="0 0 24 24"
   version="1.1"
   id="svg1"
   sodipodi:docname="theme-light.svg"
   inkscape:version="1.3.2 (091e20e, 2023-11-25, custom)"
   xmlns:inkscape="http://www.inkscape.org/namespaces/inkscape"
   xmlns:sodipodi="http://sodipodi.sourceforge.net/DTD/sodipodi-0.dtd"
   xmlns="http://www.w3.org/2000/svg"
   xmlns:svg="http://www.w3.org/2000/svg">
  <defs
     id="defs1" />
  <sodipodi:namedview
     id="namedview1"
     pagecolor="#505050"
     bordercolor="#eeeeee"
     borderopacity="1"
     inkscape:showpageshadow="0"
     inkscape:pageopacity="0"
     inkscape:pagecheckerboard="0"
     inkscape:deskcolor="#505050"
     inkscape:zoom="34.625"
     inkscape:cx="11.98556"
     inkscape:cy="12"
     inkscape:window-width="1920"
     inkscape:window-height="1009"
     inkscape:window-x="1912"
     inkscape:window-y="-8"
     inkscape:window-maximized="1"
     inkscape:current-layer="svg1" />
  <path
     d="M12 2a7 7 0 0 1 7 7c0 2.38-1.19 4.47-3 5.74V17a1 1 0 0 1-1 1H9a1 1 0 0 1-1-1v-2.26C6.19 13.47 5 11.38 5 9a7 7 0 0 1 7-7M9 21v-1h6v1a1 1 0 0 1-1 1h-4a1 1 0 0 1-1-1m3-17a5 5 0 0 0-5 5c0 2.05 1.23 3.81 3 4.58V16h4v-2.42c1.77-.77 3-2.53 3-4.58a5 5 0 0 0-5-5"
     id="path1"
     style="fill:#ffffff" />
</svg>
