<svg xmlns="http://www.w3.org/2000/svg" width="158" height="25" fill="none"><g clip-path="url(#a)"><path fill="#000" d="M4.576 24A.852.852 0 0 1 4 23.776a.78.78 0 0 1-.224-.576V11.552H1.344a.78.78 0 0 1-.576-.224.78.78 0 0 1-.224-.576V8.16a.78.78 0 0 1 .224-.576.78.78 0 0 1 .576-.224h2.432V6.336c0-1.45.277-2.613.832-3.488.576-.896 1.387-1.536 2.432-1.92C8.085.523 9.333.32 10.784.32h2.496a.74.74 0 0 1 .544.224.73.73 0 0 1 .256.576v2.592a.73.73 0 0 1-.256.576.74.74 0 0 1-.544.224h-2.24c-.725 0-1.237.17-1.536.512-.277.341-.416.832-.416 1.472v.864h3.872a.74.74 0 0 1 .544.224.73.73 0 0 1 .256.576v2.592a.73.73 0 0 1-.256.576.74.74 0 0 1-.544.224H9.088V23.2a.78.78 0 0 1-.224.576.78.78 0 0 1-.576.224H4.576Zm16.21.32c-1.152 0-2.186-.213-3.104-.64-.896-.448-1.61-1.045-2.144-1.792a4.243 4.243 0 0 1-.8-2.528c0-1.515.619-2.71 1.856-3.584 1.238-.896 2.88-1.504 4.928-1.824l4-.608v-.448c0-.768-.16-1.355-.48-1.76-.32-.405-.906-.608-1.76-.608-.597 0-1.088.117-1.472.352-.362.235-.65.555-.864.96a.92.92 0 0 1-.8.416h-3.584c-.234 0-.416-.064-.544-.192a.647.647 0 0 1-.16-.512c0-.384.139-.821.416-1.312.299-.512.747-1.013 1.344-1.504.598-.49 1.366-.896 2.304-1.216.939-.32 2.07-.48 3.392-.48 1.387 0 2.57.16 3.552.48.982.32 1.77.768 2.368 1.344a5.35 5.35 0 0 1 1.376 2.048c.299.768.448 1.621.448 2.56V23.2a.73.73 0 0 1-.256.576.74.74 0 0 1-.544.224h-3.712a.78.78 0 0 1-.576-.224.78.78 0 0 1-.224-.576v-1.12c-.277.405-.65.779-1.12 1.12a5.483 5.483 0 0 1-1.664.8c-.618.213-1.344.32-2.176.32Zm1.504-3.648c.619 0 1.174-.128 1.664-.384a2.799 2.799 0 0 0 1.184-1.248c.299-.576.448-1.29.448-2.144v-.448l-2.72.48c-1.002.17-1.738.437-2.208.8-.448.341-.672.747-.672 1.216 0 .363.107.672.32.928.214.256.49.459.832.608.342.128.726.192 1.152.192Zm22.555 3.648c-1.194 0-2.197-.203-3.008-.608-.79-.405-1.44-.917-1.952-1.536V23.2a.73.73 0 0 1-.256.576.74.74 0 0 1-.544.224H35.47a.78.78 0 0 1-.576-.224.78.78 0 0 1-.224-.576V2.08a.78.78 0 0 1 .224-.576.78.78 0 0 1 .576-.224h3.904a.78.78 0 0 1 .576.224.78.78 0 0 1 .224.576v6.848c.512-.555 1.152-1.003 1.92-1.344.79-.363 1.707-.544 2.752-.544 1.067 0 2.006.181 2.816.544a5.553 5.553 0 0 1 2.112 1.504c.576.661 1.024 1.45 1.344 2.368.32.917.502 1.952.544 3.104.022.405.032.779.032 1.12 0 .32-.01.693-.032 1.12-.042 1.195-.234 2.261-.576 3.2-.32.917-.768 1.707-1.344 2.368a5.777 5.777 0 0 1-2.08 1.472c-.81.32-1.75.48-2.816.48Zm-1.728-4.288c.726 0 1.29-.15 1.696-.448.406-.299.694-.704.864-1.216.192-.512.31-1.077.352-1.696.043-.661.043-1.323 0-1.984a5.983 5.983 0 0 0-.352-1.696 2.414 2.414 0 0 0-.864-1.216c-.405-.299-.97-.448-1.696-.448-.661 0-1.205.15-1.632.448-.426.277-.746.65-.96 1.12-.213.448-.33.939-.352 1.472a22.464 22.464 0 0 0 0 2.4c.022.576.128 1.11.32 1.6s.502.896.928 1.216c.427.299.992.448 1.696.448ZM59.028 24c-.32 0-.555-.075-.704-.224a1.548 1.548 0 0 1-.352-.576L53.364 8.384a.855.855 0 0 1-.064-.32c0-.192.075-.352.224-.48.15-.15.32-.224.512-.224h3.296c.277 0 .49.075.64.224.17.15.277.299.32.448l2.688 9.152 2.88-9.12c.043-.15.139-.299.288-.448.17-.17.405-.256.704-.256h2.112c.299 0 .523.085.672.256.17.15.277.299.32.448l2.88 9.12 2.688-9.152c.043-.15.139-.299.288-.448.17-.15.395-.224.672-.224h3.296c.192 0 .352.075.48.224.15.128.224.288.224.48 0 .107-.01.213-.032.32L73.844 23.2a1.145 1.145 0 0 1-.352.576c-.15.15-.384.224-.704.224h-2.88c-.299 0-.533-.075-.704-.224a1.145 1.145 0 0 1-.352-.576l-2.944-8.768-2.944 8.768a1.145 1.145 0 0 1-.352.576c-.17.15-.405.224-.704.224h-2.88Zm29.545.32c-1.792 0-3.307-.288-4.544-.864-1.216-.576-2.155-1.397-2.816-2.464-.64-1.088-1.003-2.379-1.088-3.872a29.14 29.14 0 0 1-.032-1.44c0-.555.01-1.035.031-1.44.086-1.515.47-2.805 1.153-3.872.682-1.067 1.632-1.888 2.847-2.464 1.238-.576 2.72-.864 4.449-.864 1.749 0 3.232.288 4.448.864 1.237.576 2.197 1.397 2.88 2.464.682 1.067 1.066 2.357 1.151 3.872.022.405.032.885.032 1.44 0 .533-.01 1.013-.032 1.44-.085 1.493-.458 2.784-1.12 3.872-.64 1.067-1.578 1.888-2.816 2.464-1.216.576-2.73.864-4.543.864Zm0-3.904c.96 0 1.653-.288 2.08-.864.447-.576.703-1.44.767-2.592.022-.32.032-.747.032-1.28s-.01-.96-.031-1.28c-.065-1.13-.32-1.984-.769-2.56-.426-.597-1.12-.896-2.08-.896-.938 0-1.632.299-2.08.896-.448.576-.693 1.43-.736 2.56-.02.32-.031.747-.031 1.28s.01.96.032 1.28c.042 1.152.287 2.016.736 2.592.448.576 1.14.864 2.08.864ZM101.032 24a.779.779 0 0 1-.576-.224.777.777 0 0 1-.224-.576V8.16c0-.213.074-.395.224-.544a.73.73 0 0 1 .576-.256h3.68c.234 0 .426.085.576.256.149.15.224.33.224.544v1.28a6.016 6.016 0 0 1 2.048-1.536c.81-.363 1.717-.544 2.72-.544h1.408c.213 0 .394.075.544.224.17.15.256.341.256.576v3.296a.799.799 0 0 1-.256.576.742.742 0 0 1-.544.224h-3.104c-.875 0-1.558.245-2.048.736-.47.47-.704 1.141-.704 2.016V23.2a.732.732 0 0 1-.256.576A.782.782 0 0 1 105 24h-3.968Zm14.531 0a.779.779 0 0 1-.576-.224.78.78 0 0 1-.224-.576V2.08a.78.78 0 0 1 .224-.576.779.779 0 0 1 .576-.224h3.712a.74.74 0 0 1 .544.224.73.73 0 0 1 .256.576V12.8l4.448-4.896c.128-.15.267-.277.416-.384.149-.107.363-.16.64-.16h4.288c.192 0 .352.075.48.224a.607.607 0 0 1 .224.48.78.78 0 0 1-.064.288.587.587 0 0 1-.192.256l-5.76 6.208 6.56 7.968c.171.17.256.341.256.512a.706.706 0 0 1-.224.512.692.692 0 0 1-.512.192h-4.384c-.32 0-.555-.053-.704-.16a7.5 7.5 0 0 1-.416-.384l-5.056-6.08V23.2a.73.73 0 0 1-.256.576.74.74 0 0 1-.544.224h-3.712Zm24.392.32c-1.387 0-2.571-.15-3.552-.448-.96-.32-1.75-.704-2.368-1.152-.598-.448-1.046-.907-1.344-1.376-.299-.49-.459-.907-.48-1.248a.643.643 0 0 1 .224-.576c.17-.17.352-.256.544-.256h3.648c.064 0 .117.01.16.032.042.021.106.064.192.128.277.15.554.341.832.576.277.213.597.405.96.576.362.17.8.256 1.312.256.597 0 1.098-.117 1.504-.352.405-.235.608-.587.608-1.056 0-.341-.096-.619-.288-.832-.192-.235-.587-.459-1.184-.672-.576-.213-1.451-.427-2.624-.64-1.11-.256-2.08-.587-2.912-.992-.832-.427-1.472-.97-1.92-1.632-.448-.683-.672-1.504-.672-2.464 0-.853.277-1.675.832-2.464.554-.79 1.365-1.43 2.432-1.92 1.066-.512 2.378-.768 3.936-.768 1.237 0 2.304.15 3.2.448.917.277 1.685.64 2.304 1.088.64.448 1.12.907 1.44 1.376.32.47.49.896.512 1.28a.736.736 0 0 1-.192.576.706.706 0 0 1-.512.224h-3.328c-.086 0-.171-.01-.256-.032a2.028 2.028 0 0 1-.224-.128 4.009 4.009 0 0 1-.768-.512 4.634 4.634 0 0 0-.896-.576c-.342-.17-.768-.256-1.28-.256-.576 0-1.024.128-1.344.384-.32.256-.48.587-.48.992 0 .277.085.533.256.768.192.235.565.448 1.12.64.576.192 1.461.405 2.656.64 1.472.235 2.645.619 3.52 1.152.874.512 1.493 1.12 1.856 1.824a4.58 4.58 0 0 1 .544 2.176c0 1.024-.31 1.93-.928 2.72-.598.79-1.494 1.408-2.688 1.856-1.195.427-2.646.64-4.352.64Z"/><path fill="#3B82F6" d="M151.434 24a.782.782 0 0 1-.576-.224.78.78 0 0 1-.224-.576v-4.064c0-.213.075-.395.224-.544a.732.732 0 0 1 .576-.256h4.032a.73.73 0 0 1 .576.256c.171.15.256.33.256.544V23.2a.73.73 0 0 1-.256.576.779.779 0 0 1-.576.224h-4.032Z"/></g><defs><clipPath id="a"><path fill="#fff" d="M0 0h158v25H0z"/></clipPath></defs></svg>
